{
  "asset": {
    "version": "2.0",
    "generator": "THREE.GLTFExporter"
  },
  "scenes": [
    {
      "nodes": [0]
    }
  ],
  "scene": 0,
  "nodes": [
    {
      "children": [1, 2, 3, 4, 7, 8, 9, 10, 11, 12, 13, 14, 15, 16],
      "matrix": [0.01, 0, 0, 0, 0, 0.01, 0, 0, 0, 0, 0.01, 0, 0, 0, 0, 1]
    },
    {
      "name": "download.png 3",
      "mesh": 0
    },
    {
      "name": "download.png 2",
      "mesh": 1
    },
    {
      "name": "download.png",
      "mesh": 2
    },
    {
      "matrix": [
        0.34456181886481857, 0.6445246718153196, 0.6825431124858873, 0,
        0.8818892909604213, -0.47145654994848174, 0, 0, 0.3217894210036949,
        0.6019274615200982, -0.7308453321996915, 0, 0, 0, 0, 1
      ],
      "name": "Directional Light 6",
      "extensions": {
        "KHR_lights_punctual": {
          "light": 0
        }
      }
    },
    {
      "matrix": [1, 0, 0, 0, 0, 1, 0, 0, 0, 0, 1, 0, 0, 0, 0, 1],
      "name": "Directional Light 6",
      "extensions": {
        "KHR_lights_punctual": {
          "light": 1
        }
      }
    },
    {
      "matrix": [1, 0, 0, 0, 0, 1, 0, 0, 0, 0, 1, 0, 2.5, -2.5, 0, 1],
      "name": "Shape 0",
      "mesh": 3
    },
    {
      "name": "icon_create",
      "children": [5, 6]
    },
    {
      "matrix": [
        0.34456181886481857, 0.6445246718153196, 0.6825431124858873, 0,
        0.8818892909604213, -0.47145654994848174, 0, 0, 0.3217894210036949,
        0.6019274615200982, -0.7308453321996915, 0, 0, 0, 0, 1
      ],
      "name": "Directional Light 5",
      "extensions": {
        "KHR_lights_punctual": {
          "light": 2
        }
      }
    },
    {
      "matrix": [
        0.8578943578499841, 0.4077589233275893, -0.3126498540154603, 0,
        0.4292793640248686, -0.903171759756916, 0, 0, -0.28237651883888615,
        -0.13421413049422481, -0.9498684481464322, 0, 0, 0, 0, 1
      ],
      "name": "Directional Light 3",
      "extensions": {
        "KHR_lights_punctual": {
          "light": 3
        }
      }
    },
    {
      "matrix": [
        0.19544262078017152, -0.5544394518965534, 0.8089493656362106, 0,
        -0.9431193994666796, -0.3324542048908536, 0, 0, 0.2689386181495468,
        -0.7629358399177743, -0.587878324006569, 0, 0, 0, 0, 1
      ],
      "name": "Directional Light 2",
      "extensions": {
        "KHR_lights_punctual": {
          "light": 4
        }
      }
    },
    {
      "matrix": [
        0.29411848563471676, 0.5174650489796805, -0.803569685523538, 0,
        0.8693813154105089, -0.4941418100253137, 0, 0, -0.3970773788860732,
        -0.6986084702244625, -0.5952106858143612, 0, 0, 0, 0, 1
      ],
      "name": "Directional Light",
      "extensions": {
        "KHR_lights_punctual": {
          "light": 5
        }
      }
    },
    {
      "matrix": [
        0.7401387728990925, -0.5502884431208188, 0.3864935008756178, 0,
        -0.5966530831046034, -0.8024992825054558, 0, 0, 0.310160757145705,
        -0.2306025388973291, -0.9222921303908588, 0, 0, 0, 0, 1
      ],
      "name": "Directional Light 4",
      "extensions": {
        "KHR_lights_punctual": {
          "light": 6
        }
      }
    },
    {
      "matrix": [
        -0.6305653174961918, 0.5049944471396545, -0.5238514485852708, 0,
        -0.7526049952499311, -0.5178685973674662, 0.4066913288791679, 0,
        -0.06845338247515946, 0.6758149349078751, 0.7338857596269148, 0,
        -136.2153113888752, 8.916522956917216, 82.96062754250256, 1
      ],
      "name": "Sphere",
      "mesh": 4
    },
    {
      "matrix": [
        1, 0, 8.700093410695479e-10, 0, 4.791715113092164e-19, 1,
        -5.507659385819305e-10, 0, -8.700093410695479e-10,
        5.507659385819305e-10, 1, 0, -8.700093410695479e-7,
        5.507659385819301e-7, 1000, 1
      ],
      "name": "Default Camera",
      "camera": 0
    },
    {
      "matrix": [
        1, 0, 0, 0, 0, 1, -6.113269632951558e-17, 0, 0, 6.113269632951558e-17,
        1, 0, -76.61915899878984, 24.42805974562606, 3020.62832640923, 1
      ],
      "camera": 1
    },
    {
      "matrix": [1, 0, 0, 0, 0, 1, 0, 0, 0, 0, 1, 0, 0, 1, 0, 1],
      "name": "Default Ambient Light"
    }
  ],
  "bufferViews": [
    {
      "buffer": 0,
      "byteOffset": 0,
      "byteLength": 48,
      "target": 34962,
      "byteStride": 12
    },
    {
      "buffer": 0,
      "byteOffset": 48,
      "byteLength": 48,
      "target": 34962,
      "byteStride": 12
    },
    {
      "buffer": 0,
      "byteOffset": 96,
      "byteLength": 32,
      "target": 34962,
      "byteStride": 8
    },
    {
      "buffer": 0,
      "byteOffset": 128,
      "byteLength": 24,
      "target": 34963
    },
    {
      "buffer": 0,
      "byteOffset": 152,
      "byteLength": 48,
      "target": 34962,
      "byteStride": 12
    },
    {
      "buffer": 0,
      "byteOffset": 200,
      "byteLength": 48,
      "target": 34962,
      "byteStride": 12
    },
    {
      "buffer": 0,
      "byteOffset": 248,
      "byteLength": 32,
      "target": 34962,
      "byteStride": 8
    },
    {
      "buffer": 0,
      "byteOffset": 280,
      "byteLength": 24,
      "target": 34963
    },
    {
      "buffer": 0,
      "byteOffset": 304,
      "byteLength": 48,
      "target": 34962,
      "byteStride": 12
    },
    {
      "buffer": 0,
      "byteOffset": 352,
      "byteLength": 48,
      "target": 34962,
      "byteStride": 12
    },
    {
      "buffer": 0,
      "byteOffset": 400,
      "byteLength": 32,
      "target": 34962,
      "byteStride": 8
    },
    {
      "buffer": 0,
      "byteOffset": 432,
      "byteLength": 24,
      "target": 34963
    },
    {
      "buffer": 0,
      "byteOffset": 456,
      "byteLength": 48,
      "target": 34962,
      "byteStride": 12
    },
    {
      "buffer": 0,
      "byteOffset": 504,
      "byteLength": 48,
      "target": 34962,
      "byteStride": 12
    },
    {
      "buffer": 0,
      "byteOffset": 552,
      "byteLength": 32,
      "target": 34962,
      "byteStride": 8
    },
    {
      "buffer": 0,
      "byteOffset": 584,
      "byteLength": 12,
      "target": 34963
    },
    {
      "buffer": 0,
      "byteOffset": 596,
      "byteLength": 11712,
      "target": 34962,
      "byteStride": 12
    },
    {
      "buffer": 0,
      "byteOffset": 12308,
      "byteLength": 11712,
      "target": 34962,
      "byteStride": 12
    },
    {
      "buffer": 0,
      "byteOffset": 24020,
      "byteLength": 5760,
      "target": 34963
    }
  ],
  "buffers": [
    {
      "byteLength": 29780,
      "uri": "data:application/octet-stream;base64,"
    }
  ],
  "accessors": [
    {
      "bufferView": 0,
      "componentType": 5126,
      "count": 4,
      "max": [46, 46, 0],
      "min": [-46, -46, 0],
      "type": "VEC3"
    },
    {
      "bufferView": 1,
      "componentType": 5126,
      "count": 4,
      "max": [0, 0, 1],
      "min": [0, 0, 1],
      "type": "VEC3"
    },
    {
      "bufferView": 2,
      "componentType": 5126,
      "count": 4,
      "max": [1, 1],
      "min": [0, 0],
      "type": "VEC2"
    },
    {
      "bufferView": 3,
      "componentType": 5125,
      "count": 6,
      "max": [3],
      "min": [0],
      "type": "SCALAR"
    },
    {
      "bufferView": 4,
      "componentType": 5126,
      "count": 4,
      "max": [46, 46, 0],
      "min": [-46, -46, 0],
      "type": "VEC3"
    },
    {
      "bufferView": 5,
      "componentType": 5126,
      "count": 4,
      "max": [0, 0, 1],
      "min": [0, 0, 1],
      "type": "VEC3"
    },
    {
      "bufferView": 6,
      "componentType": 5126,
      "count": 4,
      "max": [1, 1],
      "min": [0, 0],
      "type": "VEC2"
    },
    {
      "bufferView": 7,
      "componentType": 5125,
      "count": 6,
      "max": [3],
      "min": [0],
      "type": "SCALAR"
    },
    {
      "bufferView": 8,
      "componentType": 5126,
      "count": 4,
      "max": [46, 46, 0],
      "min": [-46, -46, 0],
      "type": "VEC3"
    },
    {
      "bufferView": 9,
      "componentType": 5126,
      "count": 4,
      "max": [0, 0, 1],
      "min": [0, 0, 1],
      "type": "VEC3"
    },
    {
      "bufferView": 10,
      "componentType": 5126,
      "count": 4,
      "max": [1, 1],
      "min": [0, 0],
      "type": "VEC2"
    },
    {
      "bufferView": 11,
      "componentType": 5125,
      "count": 6,
      "max": [3],
      "min": [0],
      "type": "SCALAR"
    },
    {
      "bufferView": 12,
      "componentType": 5126,
      "count": 4,
      "max": [160, 160, 0],
      "min": [-160, -160, 0],
      "type": "VEC3"
    },
    {
      "bufferView": 13,
      "componentType": 5126,
      "count": 4,
      "max": [0, 0, 1],
      "min": [0, 0, 1],
      "type": "VEC3"
    },
    {
      "bufferView": 14,
      "componentType": 5126,
      "count": 4,
      "max": [1, 1],
      "min": [0, 0],
      "type": "VEC2"
    },
    {
      "bufferView": 15,
      "componentType": 5125,
      "count": 3,
      "max": [4],
      "min": [0],
      "type": "SCALAR"
    },
    {
      "bufferView": 16,
      "componentType": 5126,
      "count": 976,
      "max": [275.1282653808594, 231.2317657470703, 275.46734619140625],
      "min": [-275.1282653808594, -231.2317657470703, -275.46734619140625],
      "type": "VEC3"
    },
    {
      "bufferView": 17,
      "componentType": 5126,
      "count": 976,
      "max": [1, 1, 1],
      "min": [-1, -1, -1],
      "type": "VEC3"
    },
    {
      "bufferView": 18,
      "componentType": 5125,
      "count": 1440,
      "max": [975],
      "min": [0],
      "type": "SCALAR"
    }
  ],
  "meshes": [
    {
      "primitives": [
        {
          "mode": 4,
          "attributes": {
            "POSITION": 0,
            "NORMAL": 1,
            "TEXCOORD_0": 2
          },
          "extras": {
            "shape": {
              "points": [
                -46, 46, -46, 46, -46, 46, 0, 46, 46, 46, 46, 46, 46, 0, 46,
                -46, 46, -46, 46, -46, 0, -46, -46, -46, -46, -46, -46, 0
              ],
              "shapeHoles": [],
              "isClosed": true,
              "roundness": 0
            },
            "parameters": {
              "width": 92,
              "depth": 0,
              "cornerRadius": [0, 0, 0, 0],
              "cornerType": 0,
              "extrudeBevelSize": 0,
              "extrudeBevelSegments": 1,
              "height": 92,
              "type": "RectangleGeometry"
            },
            "ui": {
              "enabledIndieCorners": false
            },
            "type": "RectangleGeometry"
          },
          "indices": 3
        }
      ]
    },
    {
      "primitives": [
        {
          "mode": 4,
          "attributes": {
            "POSITION": 4,
            "NORMAL": 5,
            "TEXCOORD_0": 6
          },
          "extras": {
            "shape": {
              "points": [
                -46, 46, -46, 46, -46, 46, 0, 46, 46, 46, 46, 46, 46, 0, 46,
                -46, 46, -46, 46, -46, 0, -46, -46, -46, -46, -46, -46, 0
              ],
              "shapeHoles": [],
              "isClosed": true,
              "roundness": 0
            },
            "parameters": {
              "width": 92,
              "depth": 0,
              "cornerRadius": [0, 0, 0, 0],
              "cornerType": 0,
              "extrudeBevelSize": 0,
              "extrudeBevelSegments": 1,
              "height": 92,
              "type": "RectangleGeometry"
            },
            "ui": {
              "enabledIndieCorners": false
            },
            "type": "RectangleGeometry"
          },
          "indices": 7
        }
      ]
    },
    {
      "primitives": [
        {
          "mode": 4,
          "attributes": {
            "POSITION": 8,
            "NORMAL": 9,
            "TEXCOORD_0": 10
          },
          "extras": {
            "shape": {
              "points": [
                -46, 46, -46, 46, -46, 46, 0, 46, 46, 46, 46, 46, 46, 0, 46,
                -46, 46, -46, 46, -46, 0, -46, -46, -46, -46, -46, -46, 0
              ],
              "shapeHoles": [],
              "isClosed": true,
              "roundness": 0
            },
            "parameters": {
              "width": 92,
              "depth": 0,
              "cornerRadius": [0, 0, 0, 0],
              "cornerType": 0,
              "extrudeBevelSize": 0,
              "extrudeBevelSegments": 1,
              "height": 92,
              "type": "RectangleGeometry"
            },
            "ui": {
              "enabledIndieCorners": false
            },
            "type": "RectangleGeometry"
          },
          "indices": 11
        }
      ]
    },
    {
      "primitives": [
        {
          "mode": 4,
          "attributes": {
            "POSITION": 12,
            "NORMAL": 13,
            "TEXCOORD_0": 14
          },
          "extras": {
            "parameters": {
              "width": 5.5,
              "subdivisions": 12,
              "roundness": 0,
              "extrudeBevelSize": 0,
              "extrudeBevelSegments": 1,
              "windingRule": 0,
              "shape": {
                "points": [
                  {
                    "fi": 0,
                    "id": "1f197c4f-e79e-4c48-b836-987b6ada4d06",
                    "data": {
                      "roundness": 0,
                      "position": [4.5, -4.5],
                      "areControlsDirectionsMirrored": true,
                      "controlPrevious": {
                        "position": [4.5, -4.5]
                      },
                      "controlNext": {
                        "position": [4.5, -4.5]
                      }
                    }
                  },
                  {
                    "fi": 1,
                    "id": "45eefa5e-418a-4c78-8fc4-9eb678fbdbd2",
                    "data": {
                      "roundness": 0,
                      "position": [4.5, 0],
                      "areControlsDirectionsMirrored": true,
                      "controlPrevious": {
                        "position": [4.5, 0]
                      },
                      "controlNext": {
                        "position": [4.5, 0]
                      }
                    }
                  },
                  {
                    "fi": 2,
                    "id": "cdefb682-17cf-44dc-9965-c6f389039cea",
                    "data": {
                      "roundness": 0,
                      "position": [null, null],
                      "areControlsDirectionsMirrored": true,
                      "controlPrevious": {
                        "position": [null, null]
                      },
                      "controlNext": {
                        "position": [null, null]
                      }
                    }
                  },
                  {
                    "fi": 3,
                    "id": "32affa80-8e5d-43ad-8416-842fdc0c40ec",
                    "data": {
                      "roundness": 0,
                      "position": [null, null],
                      "areControlsDirectionsMirrored": true,
                      "controlPrevious": {
                        "position": [null, null]
                      },
                      "controlNext": {
                        "position": [null, null]
                      }
                    }
                  },
                  {
                    "fi": 4,
                    "id": "fc4ea1bd-630f-4ce3-ab5e-c60b810d8228",
                    "data": {
                      "roundness": 0,
                      "position": [null, null],
                      "areControlsDirectionsMirrored": true,
                      "controlPrevious": {
                        "position": [null, null]
                      },
                      "controlNext": {
                        "position": [null, null]
                      }
                    }
                  },
                  {
                    "fi": 5,
                    "id": "d67b96c8-ac43-4836-93b3-1a3741377ba0",
                    "data": {
                      "roundness": 0,
                      "position": [null, null],
                      "areControlsDirectionsMirrored": true,
                      "controlPrevious": {
                        "position": [null, null]
                      },
                      "controlNext": {
                        "position": [null, null]
                      }
                    }
                  },
                  {
                    "fi": 6,
                    "id": "b9c878ca-2fe1-41f2-adc5-54afa62c4a0e",
                    "data": {
                      "roundness": 0,
                      "position": [null, null],
                      "areControlsDirectionsMirrored": true,
                      "controlPrevious": {
                        "position": [null, null]
                      },
                      "controlNext": {
                        "position": [null, null]
                      }
                    }
                  },
                  {
                    "fi": 7,
                    "id": "276bef32-5377-4995-95bf-5d0d6f2c49a0",
                    "data": {
                      "roundness": 0,
                      "position": [null, null],
                      "areControlsDirectionsMirrored": true,
                      "controlPrevious": {
                        "position": [null, null]
                      },
                      "controlNext": {
                        "position": [null, null]
                      }
                    }
                  },
                  {
                    "fi": 8,
                    "id": "6e590a1a-e699-4449-b556-f569f1c1abd9",
                    "data": {
                      "roundness": 0,
                      "position": [null, null],
                      "areControlsDirectionsMirrored": true,
                      "controlPrevious": {
                        "position": [null, null]
                      },
                      "controlNext": {
                        "position": [null, null]
                      }
                    }
                  },
                  {
                    "fi": 9,
                    "id": "58313a1c-e56d-4337-b1e2-795226369976",
                    "data": {
                      "roundness": 0,
                      "position": [5.5, -5.5],
                      "areControlsDirectionsMirrored": true,
                      "controlPrevious": {
                        "position": [5.5, -5.5]
                      },
                      "controlNext": {
                        "position": [5.5, -5.5]
                      }
                    }
                  },
                  {
                    "fi": 10,
                    "id": "1b2e0229-f36f-4fa5-90ba-5de4889aff05",
                    "data": {
                      "roundness": 0,
                      "position": [0, -5.5],
                      "areControlsDirectionsMirrored": true,
                      "controlPrevious": {
                        "position": [0, -5.5]
                      },
                      "controlNext": {
                        "position": [0, -5.5]
                      }
                    }
                  },
                  {
                    "fi": 11,
                    "id": "9f53782e-1fcd-44bb-afc2-35e2ee1109ae",
                    "data": {
                      "roundness": 0,
                      "position": [null, null],
                      "areControlsDirectionsMirrored": true,
                      "controlPrevious": {
                        "position": [null, null]
                      },
                      "controlNext": {
                        "position": [null, null]
                      }
                    }
                  }
                ],
                "isClosed": false,
                "roundness": 0,
                "shapeHoles": []
              },
              "type": "VectorGeometry",
              "height": 5.5,
              "depth": 0
            },
            "shape": {
              "points": [
                4.5,
                -4.5,
                4.5,
                -4.5,
                4.5,
                -4.5,
                0,
                4.5,
                0,
                4.5,
                0,
                4.5,
                0,
                0,
                null,
                null,
                null,
                null,
                null,
                null,
                0,
                null,
                null,
                null,
                null,
                null,
                null,
                0,
                null,
                null,
                null,
                null,
                null,
                null,
                0,
                null,
                null,
                null,
                null,
                null,
                null,
                0,
                null,
                null,
                null,
                null,
                null,
                null,
                0,
                null,
                null,
                null,
                null,
                null,
                null,
                0,
                null,
                null,
                null,
                null,
                null,
                null,
                0,
                5.5,
                -5.5,
                5.5,
                -5.5,
                5.5,
                -5.5,
                0,
                0,
                -5.5,
                0,
                -5.5,
                0,
                -5.5,
                0,
                null,
                null,
                null,
                null,
                null,
                null,
                0
              ],
              "shapeHoles": [],
              "isClosed": false,
              "roundness": 0
            },
            "type": "VectorGeometry"
          },
          "indices": 15
        }
      ]
    },
    {
      "primitives": [
        {
          "mode": 4,
          "attributes": {
            "POSITION": 16,
            "NORMAL": 17
          },
          "extras": {
            "type": "SubdivGeometry",
            "parameters": {
              "width": 550.2565307617188,
              "height": 462.4635314941406,
              "depth": 550.9346923828125
            }
          },
          "indices": 18
        }
      ]
    }
  ],
  "extensions": {
    "KHR_lights_punctual": {
      "lights": [
        {
          "name": "Directional Light 6",
          "color": [1, 0.6196078431372549, 0.9450980392156862],
          "intensity": 1.4,
          "type": "directional"
        },
        {
          "name": "Directional Light 6",
          "color": [1, 0.6196078431372549, 0.9450980392156862],
          "intensity": 1.4,
          "type": "directional"
        },
        {
          "name": "Directional Light 5",
          "color": [1, 0.6196078431372549, 0.9450980392156862],
          "intensity": 1.4,
          "type": "directional"
        },
        {
          "name": "Directional Light 3",
          "color": [1, 0.6196078431372549, 0.9450980392156862],
          "intensity": 1.4,
          "type": "directional"
        },
        {
          "name": "Directional Light 2",
          "color": [0.20784313725490197, 0.2, 1],
          "intensity": 1,
          "type": "directional"
        },
        {
          "name": "Directional Light",
          "color": [1, 0.5019607843137255, 0.39215686274509803],
          "intensity": 1,
          "type": "directional"
        },
        {
          "name": "Directional Light 4",
          "color": [0.4470588235294118, 0.7294117647058823, 1],
          "intensity": 1.9,
          "type": "directional"
        }
      ]
    }
  },
  "cameras": [
    {
      "type": "orthographic",
      "orthographic": {
        "xmag": 7.819259999999998,
        "ymag": 3.942210249999999,
        "zfar": 50000,
        "znear": 0
      },
      "name": "Camera"
    },
    {
      "type": "orthographic",
      "orthographic": {
        "xmag": 17.765930939728417,
        "ymag": 8.956990182113076,
        "zfar": 100000,
        "znear": 0
      }
    }
  ],
  "extensionsUsed": ["KHR_lights_punctual"]
}
