<svg xmlns="http://www.w3.org/2000/svg" version="1.1" xmlns:xlink="http://www.w3.org/1999/xlink" xmlns:svgjs="http://svgjs.dev/svgjs" viewBox="0 0 800 800" opacity="1"><defs><linearGradient x1="50%" y1="0%" x2="50%" y2="100%" id="ggglitch-grad"><stop stop-color="hsl(265, 55%, 30%)" stop-opacity="1" offset="45%"></stop><stop stop-color="hsl(265, 55%, 60%)" stop-opacity="1" offset="100%"></stop></linearGradient><clipPath id="SvgjsClipPath3434"><rect width="18.181818181818183" height="800" x="0" y="0"></rect><rect width="18.181818181818183" height="800" x="36.36363636363637" y="0"></rect><rect width="18.181818181818183" height="800" x="72.72727272727273" y="0"></rect><rect width="18.181818181818183" height="800" x="109.0909090909091" y="0"></rect><rect width="18.181818181818183" height="800" x="145.45454545454547" y="0"></rect><rect width="18.181818181818183" height="800" x="181.81818181818184" y="0"></rect><rect width="18.181818181818183" height="800" x="218.1818181818182" y="0"></rect><rect width="18.181818181818183" height="800" x="254.54545454545456" y="0"></rect><rect width="18.181818181818183" height="800" x="290.90909090909093" y="0"></rect><rect width="18.181818181818183" height="800" x="327.2727272727273" y="0"></rect><rect width="18.181818181818183" height="800" x="363.6363636363637" y="0"></rect><rect width="18.181818181818183" height="800" x="400.00000000000006" y="0"></rect><rect width="18.181818181818183" height="800" x="436.3636363636364" y="0"></rect><rect width="18.181818181818183" height="800" x="472.72727272727275" y="0"></rect><rect width="18.181818181818183" height="800" x="509.0909090909091" y="0"></rect><rect width="18.181818181818183" height="800" x="545.4545454545455" y="0"></rect><rect width="18.181818181818183" height="800" x="581.8181818181819" y="0"></rect><rect width="18.181818181818183" height="800" x="618.1818181818182" y="0"></rect><rect width="18.181818181818183" height="800" x="654.5454545454546" y="0"></rect><rect width="18.181818181818183" height="800" x="690.909090909091" y="0"></rect><rect width="18.181818181818183" height="800" x="727.2727272727274" y="0"></rect><rect width="18.181818181818183" height="800" x="763.6363636363637" y="0"></rect><rect width="18.181818181818183" height="800" x="800.0000000000001" y="0"></rect><rect width="18.181818181818183" height="800" x="836.3636363636365" y="0"></rect><rect width="18.181818181818183" height="800" x="872.7272727272727" y="0"></rect><rect width="18.181818181818183" height="800" x="909.0909090909091" y="0"></rect><rect width="18.181818181818183" height="800" x="945.4545454545455" y="0"></rect><rect width="18.181818181818183" height="800" x="981.8181818181819" y="0"></rect><rect width="18.181818181818183" height="800" x="1018.1818181818182" y="0"></rect><rect width="18.181818181818183" height="800" x="1054.5454545454547" y="0"></rect><rect width="18.181818181818183" height="800" x="1090.909090909091" y="0"></rect><rect width="18.181818181818183" height="800" x="1127.2727272727275" y="0"></rect><rect width="18.181818181818183" height="800" x="1163.6363636363637" y="0"></rect><rect width="18.181818181818183" height="800" x="1200" y="0"></rect><rect width="18.181818181818183" height="800" x="1236.3636363636365" y="0"></rect><rect width="18.181818181818183" height="800" x="1272.7272727272727" y="0"></rect><rect width="18.181818181818183" height="800" x="1309.0909090909092" y="0"></rect><rect width="18.181818181818183" height="800" x="1345.4545454545455" y="0"></rect><rect width="18.181818181818183" height="800" x="1381.818181818182" y="0"></rect><rect width="18.181818181818183" height="800" x="1418.1818181818182" y="0"></rect><rect width="18.181818181818183" height="800" x="1454.5454545454547" y="0"></rect><rect width="18.181818181818183" height="800" x="1490.909090909091" y="0"></rect><rect width="18.181818181818183" height="800" x="1527.2727272727275" y="0"></rect><rect width="18.181818181818183" height="800" x="1563.6363636363637" y="0"></rect><rect width="18.181818181818183" height="800" x="1600.0000000000002" y="0"></rect></clipPath><clipPath id="SvgjsClipPath3435"><rect width="18.181818181818183" height="800" x="18.181818181818183" y="0"></rect><rect width="18.181818181818183" height="800" x="54.54545454545455" y="0"></rect><rect width="18.181818181818183" height="800" x="90.9090909090909" y="0"></rect><rect width="18.181818181818183" height="800" x="127.27272727272728" y="0"></rect><rect width="18.181818181818183" height="800" x="163.63636363636365" y="0"></rect><rect width="18.181818181818183" height="800" x="200" y="0"></rect><rect width="18.181818181818183" height="800" x="236.36363636363637" y="0"></rect><rect width="18.181818181818183" height="800" x="272.72727272727275" y="0"></rect><rect width="18.181818181818183" height="800" x="309.0909090909091" y="0"></rect><rect width="18.181818181818183" height="800" x="345.4545454545455" y="0"></rect><rect width="18.181818181818183" height="800" x="381.81818181818187" y="0"></rect><rect width="18.181818181818183" height="800" x="418.1818181818182" y="0"></rect><rect width="18.181818181818183" height="800" x="454.54545454545456" y="0"></rect><rect width="18.181818181818183" height="800" x="490.90909090909093" y="0"></rect><rect width="18.181818181818183" height="800" x="527.2727272727274" y="0"></rect><rect width="18.181818181818183" height="800" x="563.6363636363637" y="0"></rect><rect width="18.181818181818183" height="800" x="600.0000000000001" y="0"></rect><rect width="18.181818181818183" height="800" x="636.3636363636365" y="0"></rect><rect width="18.181818181818183" height="800" x="672.7272727272729" y="0"></rect><rect width="18.181818181818183" height="800" x="709.0909090909092" y="0"></rect><rect width="18.181818181818183" height="800" x="745.4545454545456" y="0"></rect><rect width="18.181818181818183" height="800" x="781.818181818182" y="0"></rect><rect width="18.181818181818183" height="800" x="818.1818181818184" y="0"></rect><rect width="18.181818181818183" height="800" x="854.5454545454546" y="0"></rect><rect width="18.181818181818183" height="800" x="890.909090909091" y="0"></rect><rect width="18.181818181818183" height="800" x="927.2727272727274" y="0"></rect><rect width="18.181818181818183" height="800" x="963.6363636363637" y="0"></rect><rect width="18.181818181818183" height="800" x="1000.0000000000001" y="0"></rect><rect width="18.181818181818183" height="800" x="1036.3636363636365" y="0"></rect><rect width="18.181818181818183" height="800" x="1072.7272727272727" y="0"></rect><rect width="18.181818181818183" height="800" x="1109.0909090909092" y="0"></rect><rect width="18.181818181818183" height="800" x="1145.4545454545455" y="0"></rect><rect width="18.181818181818183" height="800" x="1181.8181818181818" y="0"></rect><rect width="18.181818181818183" height="800" x="1218.1818181818182" y="0"></rect><rect width="18.181818181818183" height="800" x="1254.5454545454545" y="0"></rect><rect width="18.181818181818183" height="800" x="1290.909090909091" y="0"></rect><rect width="18.181818181818183" height="800" x="1327.2727272727273" y="0"></rect><rect width="18.181818181818183" height="800" x="1363.6363636363637" y="0"></rect><rect width="18.181818181818183" height="800" x="1400" y="0"></rect><rect width="18.181818181818183" height="800" x="1436.3636363636365" y="0"></rect><rect width="18.181818181818183" height="800" x="1472.7272727272727" y="0"></rect><rect width="18.181818181818183" height="800" x="1509.0909090909092" y="0"></rect><rect width="18.181818181818183" height="800" x="1545.4545454545455" y="0"></rect><rect width="18.181818181818183" height="800" x="1581.818181818182" y="0"></rect></clipPath></defs><g stroke-width="30" stroke="url(#ggglitch-grad)" fill="none"><polygon points="-15,15 15,-15 815,785 785,815" stroke="none" fill="url(#ggglitch-grad)" clip-path="url(&quot;#SvgjsClipPath3434&quot;)" opacity="0" transform="translate(0 4)"></polygon><polygon points="-15,15 15,-15 815,785 785,815" stroke="none" fill="url(#ggglitch-grad)" clip-path="url(&quot;#SvgjsClipPath3435&quot;)"></polygon><polygon points="785,-15 815,15 15,815 -15,785" stroke="none" fill="url(#ggglitch-grad)" clip-path="url(&quot;#SvgjsClipPath3434&quot;)" opacity="0" transform="translate(0 4)"></polygon><polygon points="785,-15 815,15 15,815 -15,785" stroke="none" fill="url(#ggglitch-grad)" clip-path="url(&quot;#SvgjsClipPath3435&quot;)"></polygon></g></svg>