<svg xmlns="http://www.w3.org/2000/svg" xmlns:svgjs="http://svgjs.dev/svgjs" xmlns:xlink="http://www.w3.org/1999/xlink" opacity="1" version="1.1" viewBox="0 0 800 800"><defs><linearGradient id="ggglitch-grad" x1="50%" x2="50%" y1="0%" y2="100%"><stop offset="45%" stop-color="hsl(265, 55%, 30%)" stop-opacity="1"/><stop offset="100%" stop-color="hsl(265, 55%, 60%)" stop-opacity="1"/></linearGradient><clipPath id="SvgjsClipPath3434"><rect width="18.182" height="800" x="0" y="0"/><rect width="18.182" height="800" x="36.364" y="0"/><rect width="18.182" height="800" x="72.727" y="0"/><rect width="18.182" height="800" x="109.091" y="0"/><rect width="18.182" height="800" x="145.455" y="0"/><rect width="18.182" height="800" x="181.818" y="0"/><rect width="18.182" height="800" x="218.182" y="0"/><rect width="18.182" height="800" x="254.545" y="0"/><rect width="18.182" height="800" x="290.909" y="0"/><rect width="18.182" height="800" x="327.273" y="0"/><rect width="18.182" height="800" x="363.636" y="0"/><rect width="18.182" height="800" x="400" y="0"/><rect width="18.182" height="800" x="436.364" y="0"/><rect width="18.182" height="800" x="472.727" y="0"/><rect width="18.182" height="800" x="509.091" y="0"/><rect width="18.182" height="800" x="545.455" y="0"/><rect width="18.182" height="800" x="581.818" y="0"/><rect width="18.182" height="800" x="618.182" y="0"/><rect width="18.182" height="800" x="654.545" y="0"/><rect width="18.182" height="800" x="690.909" y="0"/><rect width="18.182" height="800" x="727.273" y="0"/><rect width="18.182" height="800" x="763.636" y="0"/><rect width="18.182" height="800" x="800" y="0"/><rect width="18.182" height="800" x="836.364" y="0"/><rect width="18.182" height="800" x="872.727" y="0"/><rect width="18.182" height="800" x="909.091" y="0"/><rect width="18.182" height="800" x="945.455" y="0"/><rect width="18.182" height="800" x="981.818" y="0"/><rect width="18.182" height="800" x="1018.182" y="0"/><rect width="18.182" height="800" x="1054.545" y="0"/><rect width="18.182" height="800" x="1090.909" y="0"/><rect width="18.182" height="800" x="1127.273" y="0"/><rect width="18.182" height="800" x="1163.636" y="0"/><rect width="18.182" height="800" x="1200" y="0"/><rect width="18.182" height="800" x="1236.364" y="0"/><rect width="18.182" height="800" x="1272.727" y="0"/><rect width="18.182" height="800" x="1309.091" y="0"/><rect width="18.182" height="800" x="1345.455" y="0"/><rect width="18.182" height="800" x="1381.818" y="0"/><rect width="18.182" height="800" x="1418.182" y="0"/><rect width="18.182" height="800" x="1454.545" y="0"/><rect width="18.182" height="800" x="1490.909" y="0"/><rect width="18.182" height="800" x="1527.273" y="0"/><rect width="18.182" height="800" x="1563.636" y="0"/><rect width="18.182" height="800" x="1600" y="0"/></clipPath><clipPath id="SvgjsClipPath3435"><rect width="18.182" height="800" x="18.182" y="0"/><rect width="18.182" height="800" x="54.545" y="0"/><rect width="18.182" height="800" x="90.909" y="0"/><rect width="18.182" height="800" x="127.273" y="0"/><rect width="18.182" height="800" x="163.636" y="0"/><rect width="18.182" height="800" x="200" y="0"/><rect width="18.182" height="800" x="236.364" y="0"/><rect width="18.182" height="800" x="272.727" y="0"/><rect width="18.182" height="800" x="309.091" y="0"/><rect width="18.182" height="800" x="345.455" y="0"/><rect width="18.182" height="800" x="381.818" y="0"/><rect width="18.182" height="800" x="418.182" y="0"/><rect width="18.182" height="800" x="454.545" y="0"/><rect width="18.182" height="800" x="490.909" y="0"/><rect width="18.182" height="800" x="527.273" y="0"/><rect width="18.182" height="800" x="563.636" y="0"/><rect width="18.182" height="800" x="600" y="0"/><rect width="18.182" height="800" x="636.364" y="0"/><rect width="18.182" height="800" x="672.727" y="0"/><rect width="18.182" height="800" x="709.091" y="0"/><rect width="18.182" height="800" x="745.455" y="0"/><rect width="18.182" height="800" x="781.818" y="0"/><rect width="18.182" height="800" x="818.182" y="0"/><rect width="18.182" height="800" x="854.545" y="0"/><rect width="18.182" height="800" x="890.909" y="0"/><rect width="18.182" height="800" x="927.273" y="0"/><rect width="18.182" height="800" x="963.636" y="0"/><rect width="18.182" height="800" x="1000" y="0"/><rect width="18.182" height="800" x="1036.364" y="0"/><rect width="18.182" height="800" x="1072.727" y="0"/><rect width="18.182" height="800" x="1109.091" y="0"/><rect width="18.182" height="800" x="1145.455" y="0"/><rect width="18.182" height="800" x="1181.818" y="0"/><rect width="18.182" height="800" x="1218.182" y="0"/><rect width="18.182" height="800" x="1254.545" y="0"/><rect width="18.182" height="800" x="1290.909" y="0"/><rect width="18.182" height="800" x="1327.273" y="0"/><rect width="18.182" height="800" x="1363.636" y="0"/><rect width="18.182" height="800" x="1400" y="0"/><rect width="18.182" height="800" x="1436.364" y="0"/><rect width="18.182" height="800" x="1472.727" y="0"/><rect width="18.182" height="800" x="1509.091" y="0"/><rect width="18.182" height="800" x="1545.455" y="0"/><rect width="18.182" height="800" x="1581.818" y="0"/></clipPath></defs><g fill="none" stroke="url(#ggglitch-grad)" stroke-width="30"><polygon fill="url(#ggglitch-grad)" stroke="none" points="-15 15 15 -15 815 785 785 815" clip-path="url(&quot;#SvgjsClipPath3434&quot;)" opacity="0" transform="translate(0 4)"/><polygon fill="url(#ggglitch-grad)" stroke="none" points="-15 15 15 -15 815 785 785 815" clip-path="url(&quot;#SvgjsClipPath3435&quot;)"/><polygon fill="url(#ggglitch-grad)" stroke="none" points="785 -15 815 15 15 815 -15 785" clip-path="url(&quot;#SvgjsClipPath3434&quot;)" opacity="0" transform="translate(0 4)"/><polygon fill="url(#ggglitch-grad)" stroke="none" points="785 -15 815 15 15 815 -15 785" clip-path="url(&quot;#SvgjsClipPath3435&quot;)"/></g></svg>