<svg xmlns="http://www.w3.org/2000/svg" version="1.1" xmlns:xlink="http://www.w3.org/1999/xlink" xmlns:svgjs="http://svgjs.com/svgjs" width="1440" height="560" preserveAspectRatio="none" viewBox="0 0 1440 560"><g mask="url(&quot;#SvgjsMask1008&quot;)" fill="none"><rect width="1440" height="560" x="0" y="0" fill="rgba(0, 0, 0, 1)"></rect><path d="M98.27 38.71L163.23 76.21L163.23 151.21L98.27 188.71L33.32 151.21L33.32 76.21zM98.27 488.71L163.23 526.21L163.23 601.21L98.27 638.71L33.32 601.21L33.32 526.21zM228.18 38.71L293.13 76.21L293.13 151.21L228.18 188.71L163.23 151.21L163.23 76.21zM293.13 -73.79L358.09 -36.29L358.09 38.71L293.13 76.21L228.18 38.71L228.18 -36.29zM423.04 -73.79L488 -36.29L488 38.71L423.04 76.21L358.09 38.71L358.09 -36.29zM488 38.71L552.95 76.21L552.95 151.21L488 188.71L423.04 151.21L423.04 76.21zM423.04 376.21L488 413.71L488 488.71L423.04 526.21L358.09 488.71L358.09 413.71zM552.95 376.21L617.9 413.71L617.9 488.71L552.95 526.21L488 488.71L488 413.71zM682.86 151.21L747.81 188.71L747.81 263.71L682.86 301.21L617.9 263.71L617.9 188.71zM682.86 376.21L747.81 413.71L747.81 488.71L682.86 526.21L617.9 488.71L617.9 413.71zM747.81 488.71L812.77 526.21L812.77 601.21L747.81 638.71L682.86 601.21L682.86 526.21zM812.76 -73.79L877.72 -36.29L877.72 38.71L812.76 76.21L747.81 38.71L747.81 -36.29zM877.72 263.71L942.67 301.21L942.67 376.21L877.72 413.71L812.76 376.21L812.76 301.21zM877.72 488.71L942.67 526.21L942.67 601.21L877.72 638.71L812.76 601.21L812.76 526.21zM942.67 -73.79L1007.63 -36.29L1007.63 38.71L942.67 76.21L877.72 38.71L877.72 -36.29zM1007.63 488.71L1072.58 526.21L1072.58 601.21L1007.63 638.71L942.67 601.21L942.67 526.21zM1267.44 38.71L1332.39 76.21L1332.39 151.21L1267.44 188.71L1202.49 151.21L1202.49 76.21zM1267.44 488.71L1332.39 526.21L1332.39 601.21L1267.44 638.71L1202.49 601.21L1202.49 526.21zM1332.39 -73.79L1397.35 -36.29L1397.35 38.71L1332.39 76.21L1267.44 38.71L1267.44 -36.29zM1332.39 376.21L1397.35 413.71L1397.35 488.71L1332.39 526.21L1267.44 488.71L1267.44 413.71zM1462.3 -73.79L1527.26 -36.29L1527.26 38.71L1462.3 76.21L1397.35 38.71L1397.35 -36.29zM1527.26 38.71L1592.21 76.21L1592.21 151.21L1527.26 188.71L1462.3 151.21L1462.3 76.21zM1527.26 263.71L1592.21 301.21L1592.21 376.21L1527.26 413.71L1462.3 376.21L1462.3 301.21zM1462.3 376.21L1527.26 413.71L1527.26 488.71L1462.3 526.21L1397.35 488.71L1397.35 413.71z" stroke="rgba(51, 7, 102, 1)" stroke-width="2"></path><path d="M90.77 38.71 a7.5 7.5 0 1 0 15 0 a7.5 7.5 0 1 0 -15 0zM155.73 76.21 a7.5 7.5 0 1 0 15 0 a7.5 7.5 0 1 0 -15 0zM155.73 151.21 a7.5 7.5 0 1 0 15 0 a7.5 7.5 0 1 0 -15 0zM90.77 188.71 a7.5 7.5 0 1 0 15 0 a7.5 7.5 0 1 0 -15 0zM25.82 151.21 a7.5 7.5 0 1 0 15 0 a7.5 7.5 0 1 0 -15 0zM25.82 76.21 a7.5 7.5 0 1 0 15 0 a7.5 7.5 0 1 0 -15 0zM90.77 488.71 a7.5 7.5 0 1 0 15 0 a7.5 7.5 0 1 0 -15 0zM155.73 526.21 a7.5 7.5 0 1 0 15 0 a7.5 7.5 0 1 0 -15 0zM155.73 601.21 a7.5 7.5 0 1 0 15 0 a7.5 7.5 0 1 0 -15 0zM90.77 638.71 a7.5 7.5 0 1 0 15 0 a7.5 7.5 0 1 0 -15 0zM25.82 601.21 a7.5 7.5 0 1 0 15 0 a7.5 7.5 0 1 0 -15 0zM25.82 526.21 a7.5 7.5 0 1 0 15 0 a7.5 7.5 0 1 0 -15 0zM220.68 38.71 a7.5 7.5 0 1 0 15 0 a7.5 7.5 0 1 0 -15 0zM285.63 76.21 a7.5 7.5 0 1 0 15 0 a7.5 7.5 0 1 0 -15 0zM285.63 151.21 a7.5 7.5 0 1 0 15 0 a7.5 7.5 0 1 0 -15 0zM220.68 188.71 a7.5 7.5 0 1 0 15 0 a7.5 7.5 0 1 0 -15 0zM285.63 -73.79 a7.5 7.5 0 1 0 15 0 a7.5 7.5 0 1 0 -15 0zM350.59 -36.29 a7.5 7.5 0 1 0 15 0 a7.5 7.5 0 1 0 -15 0zM350.59 38.71 a7.5 7.5 0 1 0 15 0 a7.5 7.5 0 1 0 -15 0zM220.68 -36.29 a7.5 7.5 0 1 0 15 0 a7.5 7.5 0 1 0 -15 0zM415.54 -73.79 a7.5 7.5 0 1 0 15 0 a7.5 7.5 0 1 0 -15 0zM480.5 -36.29 a7.5 7.5 0 1 0 15 0 a7.5 7.5 0 1 0 -15 0zM480.5 38.71 a7.5 7.5 0 1 0 15 0 a7.5 7.5 0 1 0 -15 0zM415.54 76.21 a7.5 7.5 0 1 0 15 0 a7.5 7.5 0 1 0 -15 0zM545.45 76.21 a7.5 7.5 0 1 0 15 0 a7.5 7.5 0 1 0 -15 0zM545.45 151.21 a7.5 7.5 0 1 0 15 0 a7.5 7.5 0 1 0 -15 0zM480.5 188.71 a7.5 7.5 0 1 0 15 0 a7.5 7.5 0 1 0 -15 0zM415.54 151.21 a7.5 7.5 0 1 0 15 0 a7.5 7.5 0 1 0 -15 0zM415.54 376.21 a7.5 7.5 0 1 0 15 0 a7.5 7.5 0 1 0 -15 0zM480.5 413.71 a7.5 7.5 0 1 0 15 0 a7.5 7.5 0 1 0 -15 0zM480.5 488.71 a7.5 7.5 0 1 0 15 0 a7.5 7.5 0 1 0 -15 0zM415.54 526.21 a7.5 7.5 0 1 0 15 0 a7.5 7.5 0 1 0 -15 0zM350.59 488.71 a7.5 7.5 0 1 0 15 0 a7.5 7.5 0 1 0 -15 0zM350.59 413.71 a7.5 7.5 0 1 0 15 0 a7.5 7.5 0 1 0 -15 0zM545.45 376.21 a7.5 7.5 0 1 0 15 0 a7.5 7.5 0 1 0 -15 0zM610.4 413.71 a7.5 7.5 0 1 0 15 0 a7.5 7.5 0 1 0 -15 0zM610.4 488.71 a7.5 7.5 0 1 0 15 0 a7.5 7.5 0 1 0 -15 0zM545.45 526.21 a7.5 7.5 0 1 0 15 0 a7.5 7.5 0 1 0 -15 0zM675.36 151.21 a7.5 7.5 0 1 0 15 0 a7.5 7.5 0 1 0 -15 0zM740.31 188.71 a7.5 7.5 0 1 0 15 0 a7.5 7.5 0 1 0 -15 0zM740.31 263.71 a7.5 7.5 0 1 0 15 0 a7.5 7.5 0 1 0 -15 0zM675.36 301.21 a7.5 7.5 0 1 0 15 0 a7.5 7.5 0 1 0 -15 0zM610.4 263.71 a7.5 7.5 0 1 0 15 0 a7.5 7.5 0 1 0 -15 0zM610.4 188.71 a7.5 7.5 0 1 0 15 0 a7.5 7.5 0 1 0 -15 0zM675.36 376.21 a7.5 7.5 0 1 0 15 0 a7.5 7.5 0 1 0 -15 0zM740.31 413.71 a7.5 7.5 0 1 0 15 0 a7.5 7.5 0 1 0 -15 0zM740.31 488.71 a7.5 7.5 0 1 0 15 0 a7.5 7.5 0 1 0 -15 0zM675.36 526.21 a7.5 7.5 0 1 0 15 0 a7.5 7.5 0 1 0 -15 0zM805.27 526.21 a7.5 7.5 0 1 0 15 0 a7.5 7.5 0 1 0 -15 0zM805.27 601.21 a7.5 7.5 0 1 0 15 0 a7.5 7.5 0 1 0 -15 0zM740.31 638.71 a7.5 7.5 0 1 0 15 0 a7.5 7.5 0 1 0 -15 0zM675.36 601.21 a7.5 7.5 0 1 0 15 0 a7.5 7.5 0 1 0 -15 0zM805.26 -73.79 a7.5 7.5 0 1 0 15 0 a7.5 7.5 0 1 0 -15 0zM870.22 -36.29 a7.5 7.5 0 1 0 15 0 a7.5 7.5 0 1 0 -15 0zM870.22 38.71 a7.5 7.5 0 1 0 15 0 a7.5 7.5 0 1 0 -15 0zM805.26 76.21 a7.5 7.5 0 1 0 15 0 a7.5 7.5 0 1 0 -15 0zM740.31 38.71 a7.5 7.5 0 1 0 15 0 a7.5 7.5 0 1 0 -15 0zM740.31 -36.29 a7.5 7.5 0 1 0 15 0 a7.5 7.5 0 1 0 -15 0zM870.22 263.71 a7.5 7.5 0 1 0 15 0 a7.5 7.5 0 1 0 -15 0zM935.17 301.21 a7.5 7.5 0 1 0 15 0 a7.5 7.5 0 1 0 -15 0zM935.17 376.21 a7.5 7.5 0 1 0 15 0 a7.5 7.5 0 1 0 -15 0zM870.22 413.71 a7.5 7.5 0 1 0 15 0 a7.5 7.5 0 1 0 -15 0zM805.26 376.21 a7.5 7.5 0 1 0 15 0 a7.5 7.5 0 1 0 -15 0zM805.26 301.21 a7.5 7.5 0 1 0 15 0 a7.5 7.5 0 1 0 -15 0zM870.22 488.71 a7.5 7.5 0 1 0 15 0 a7.5 7.5 0 1 0 -15 0zM935.17 526.21 a7.5 7.5 0 1 0 15 0 a7.5 7.5 0 1 0 -15 0zM935.17 601.21 a7.5 7.5 0 1 0 15 0 a7.5 7.5 0 1 0 -15 0zM870.22 638.71 a7.5 7.5 0 1 0 15 0 a7.5 7.5 0 1 0 -15 0zM805.26 601.21 a7.5 7.5 0 1 0 15 0 a7.5 7.5 0 1 0 -15 0zM805.26 526.21 a7.5 7.5 0 1 0 15 0 a7.5 7.5 0 1 0 -15 0zM935.17 -73.79 a7.5 7.5 0 1 0 15 0 a7.5 7.5 0 1 0 -15 0zM1000.13 -36.29 a7.5 7.5 0 1 0 15 0 a7.5 7.5 0 1 0 -15 0zM1000.13 38.71 a7.5 7.5 0 1 0 15 0 a7.5 7.5 0 1 0 -15 0zM935.17 76.21 a7.5 7.5 0 1 0 15 0 a7.5 7.5 0 1 0 -15 0zM1000.13 488.71 a7.5 7.5 0 1 0 15 0 a7.5 7.5 0 1 0 -15 0zM1065.08 526.21 a7.5 7.5 0 1 0 15 0 a7.5 7.5 0 1 0 -15 0zM1065.08 601.21 a7.5 7.5 0 1 0 15 0 a7.5 7.5 0 1 0 -15 0zM1000.13 638.71 a7.5 7.5 0 1 0 15 0 a7.5 7.5 0 1 0 -15 0zM1259.94 38.71 a7.5 7.5 0 1 0 15 0 a7.5 7.5 0 1 0 -15 0zM1324.89 76.21 a7.5 7.5 0 1 0 15 0 a7.5 7.5 0 1 0 -15 0zM1324.89 151.21 a7.5 7.5 0 1 0 15 0 a7.5 7.5 0 1 0 -15 0zM1259.94 188.71 a7.5 7.5 0 1 0 15 0 a7.5 7.5 0 1 0 -15 0zM1194.99 151.21 a7.5 7.5 0 1 0 15 0 a7.5 7.5 0 1 0 -15 0zM1194.99 76.21 a7.5 7.5 0 1 0 15 0 a7.5 7.5 0 1 0 -15 0zM1259.94 488.71 a7.5 7.5 0 1 0 15 0 a7.5 7.5 0 1 0 -15 0zM1324.89 526.21 a7.5 7.5 0 1 0 15 0 a7.5 7.5 0 1 0 -15 0zM1324.89 601.21 a7.5 7.5 0 1 0 15 0 a7.5 7.5 0 1 0 -15 0zM1259.94 638.71 a7.5 7.5 0 1 0 15 0 a7.5 7.5 0 1 0 -15 0zM1194.99 601.21 a7.5 7.5 0 1 0 15 0 a7.5 7.5 0 1 0 -15 0zM1194.99 526.21 a7.5 7.5 0 1 0 15 0 a7.5 7.5 0 1 0 -15 0zM1324.89 -73.79 a7.5 7.5 0 1 0 15 0 a7.5 7.5 0 1 0 -15 0zM1389.85 -36.29 a7.5 7.5 0 1 0 15 0 a7.5 7.5 0 1 0 -15 0zM1389.85 38.71 a7.5 7.5 0 1 0 15 0 a7.5 7.5 0 1 0 -15 0zM1259.94 -36.29 a7.5 7.5 0 1 0 15 0 a7.5 7.5 0 1 0 -15 0zM1324.89 376.21 a7.5 7.5 0 1 0 15 0 a7.5 7.5 0 1 0 -15 0zM1389.85 413.71 a7.5 7.5 0 1 0 15 0 a7.5 7.5 0 1 0 -15 0zM1389.85 488.71 a7.5 7.5 0 1 0 15 0 a7.5 7.5 0 1 0 -15 0zM1259.94 413.71 a7.5 7.5 0 1 0 15 0 a7.5 7.5 0 1 0 -15 0zM1454.8 -73.79 a7.5 7.5 0 1 0 15 0 a7.5 7.5 0 1 0 -15 0zM1519.76 -36.29 a7.5 7.5 0 1 0 15 0 a7.5 7.5 0 1 0 -15 0zM1519.76 38.71 a7.5 7.5 0 1 0 15 0 a7.5 7.5 0 1 0 -15 0zM1454.8 76.21 a7.5 7.5 0 1 0 15 0 a7.5 7.5 0 1 0 -15 0zM1584.71 76.21 a7.5 7.5 0 1 0 15 0 a7.5 7.5 0 1 0 -15 0zM1584.71 151.21 a7.5 7.5 0 1 0 15 0 a7.5 7.5 0 1 0 -15 0zM1519.76 188.71 a7.5 7.5 0 1 0 15 0 a7.5 7.5 0 1 0 -15 0zM1454.8 151.21 a7.5 7.5 0 1 0 15 0 a7.5 7.5 0 1 0 -15 0zM1519.76 263.71 a7.5 7.5 0 1 0 15 0 a7.5 7.5 0 1 0 -15 0zM1584.71 301.21 a7.5 7.5 0 1 0 15 0 a7.5 7.5 0 1 0 -15 0zM1584.71 376.21 a7.5 7.5 0 1 0 15 0 a7.5 7.5 0 1 0 -15 0zM1519.76 413.71 a7.5 7.5 0 1 0 15 0 a7.5 7.5 0 1 0 -15 0zM1454.8 376.21 a7.5 7.5 0 1 0 15 0 a7.5 7.5 0 1 0 -15 0zM1454.8 301.21 a7.5 7.5 0 1 0 15 0 a7.5 7.5 0 1 0 -15 0zM1519.76 488.71 a7.5 7.5 0 1 0 15 0 a7.5 7.5 0 1 0 -15 0zM1454.8 526.21 a7.5 7.5 0 1 0 15 0 a7.5 7.5 0 1 0 -15 0z" fill="rgba(51, 7, 102, 1)"></path><path d="M110.39 -44.04L153.69 -19.04L153.69 30.96L110.39 55.96L67.08 30.96L67.08 -19.04zM283.6 105.96L326.9 130.96L326.9 180.96L283.6 205.96L240.29 180.96L240.29 130.96zM326.9 180.96L370.2 205.96L370.2 255.96L326.9 280.96L283.6 255.96L283.6 205.96zM413.5 480.96L456.81 505.96L456.81 555.96L413.5 580.96L370.2 555.96L370.2 505.96zM500.11 180.96L543.41 205.96L543.41 255.96L500.11 280.96L456.81 255.96L456.81 205.96zM673.32 180.96L716.62 205.96L716.62 255.96L673.32 280.96L630.01 255.96L630.01 205.96zM630.01 405.96L673.32 430.96L673.32 480.96L630.01 505.96L586.71 480.96L586.71 430.96zM976.44 -44.04L1019.74 -19.04L1019.74 30.96L976.44 55.96L933.13 30.96L933.13 -19.04zM1279.55 30.96L1322.86 55.96L1322.86 105.96L1279.55 130.96L1236.25 105.96L1236.25 55.96zM1322.86 105.96L1366.16 130.96L1366.16 180.96L1322.86 205.96L1279.55 180.96L1279.55 130.96zM1322.86 255.96L1366.16 280.96L1366.16 330.96L1322.86 355.96L1279.55 330.96L1279.55 280.96zM1452.76 30.96L1496.07 55.96L1496.07 105.96L1452.76 130.96L1409.46 105.96L1409.46 55.96z" stroke="rgba(51, 7, 102, 1)" stroke-width="2"></path></g><defs><mask id="SvgjsMask1008"><rect width="1440" height="560" fill="#ffffff"></rect></mask></defs></svg>