<svg id="visual" viewBox="0 0 900 600" width="900" height="600" xmlns="http://www.w3.org/2000/svg" xmlns:xlink="http://www.w3.org/1999/xlink" version="1.1"><path d="M0 175L75 174C150 173 300 171 450 162C600 153 750 137 825 129L900 121L900 0L825 0C750 0 600 0 450 0C300 0 150 0 75 0L0 0Z" fill="#572493"></path><path d="M0 277L75 282C150 287 300 297 450 298C600 299 750 291 825 287L900 283L900 119L825 127C750 135 600 151 450 160C300 169 150 171 75 172L0 173Z" fill="#4d1c86"></path><path d="M0 355L75 360C150 365 300 375 450 376C600 377 750 369 825 365L900 361L900 281L825 285C750 289 600 297 450 296C300 295 150 285 75 280L0 275Z" fill="#421479"></path><path d="M0 391L75 396C150 401 300 411 450 412C600 413 750 405 825 401L900 397L900 359L825 363C750 367 600 375 450 374C300 373 150 363 75 358L0 353Z" fill="#380b6c"></path><path d="M0 427L75 432C150 437 300 447 450 450C600 453 750 449 825 447L900 445L900 395L825 399C750 403 600 411 450 410C300 409 150 399 75 394L0 389Z" fill="#300862"></path><path d="M0 457L75 464C150 471 300 485 450 491C600 497 750 495 825 494L900 493L900 443L825 445C750 447 600 451 450 448C300 445 150 435 75 430L0 425Z" fill="#2c0b5b"></path><path d="M0 541L75 543C150 545 300 549 450 550C600 551 750 549 825 548L900 547L900 491L825 492C750 493 600 495 450 489C300 483 150 469 75 462L0 455Z" fill="#270c53"></path><path d="M0 601L75 601C150 601 300 601 450 601C600 601 750 601 825 601L900 601L900 545L825 546C750 547 600 549 450 548C300 547 150 543 75 541L0 539Z" fill="#230d4c"></path></svg>